<mxfile host="app.diagrams.net" modified="2021-08-28T04:36:13.310Z" agent="5.0 (Windows NT 10.0; Win64; x64) AppleWebKit/537.36 (KHTML, like Gecko) Chrome/92.0.4515.159 Safari/537.36" etag="QHFnmRW3rSetiMFQnC_J" version="15.0.3" type="github">
  <diagram id="R2lEEEUBdFMjLlhIrx00" name="Page-1">
    <mxGraphModel dx="1182" dy="736" grid="1" gridSize="10" guides="1" tooltips="1" connect="1" arrows="1" fold="1" page="1" pageScale="1" pageWidth="850" pageHeight="1100" math="0" shadow="0" extFonts="Permanent Marker^https://fonts.googleapis.com/css?family=Permanent+Marker">
      <root>
        <mxCell id="0" />
        <mxCell id="1" parent="0" />
        <mxCell id="r9-Q5MIrD_7l047VHaWx-28" value="Users" style="shape=table;startSize=30;container=1;collapsible=0;childLayout=tableLayout;fixedRows=1;rowLines=0;fontStyle=1;align=center;pointerEvents=1;fillColor=#F694C1;strokeColor=#AF45ED;fontColor=#095C86;" vertex="1" parent="1">
          <mxGeometry x="140" y="870" width="180" height="260" as="geometry" />
        </mxCell>
        <mxCell id="r9-Q5MIrD_7l047VHaWx-29" value="" style="shape=partialRectangle;html=1;whiteSpace=wrap;collapsible=0;dropTarget=0;pointerEvents=1;fillColor=none;top=0;left=0;bottom=1;right=0;points=[[0,0.5],[1,0.5]];portConstraint=eastwest;strokeColor=#AF45ED;fontColor=#095C86;" vertex="1" parent="r9-Q5MIrD_7l047VHaWx-28">
          <mxGeometry y="30" width="180" height="30" as="geometry" />
        </mxCell>
        <mxCell id="r9-Q5MIrD_7l047VHaWx-30" value="PK" style="shape=partialRectangle;html=1;whiteSpace=wrap;connectable=0;fillColor=none;top=0;left=0;bottom=0;right=0;overflow=hidden;pointerEvents=1;strokeColor=#AF45ED;fontColor=#095C86;" vertex="1" parent="r9-Q5MIrD_7l047VHaWx-29">
          <mxGeometry width="40" height="30" as="geometry" />
        </mxCell>
        <mxCell id="r9-Q5MIrD_7l047VHaWx-31" value="Id int not null" style="shape=partialRectangle;html=1;whiteSpace=wrap;connectable=0;fillColor=none;top=0;left=0;bottom=0;right=0;align=left;spacingLeft=6;overflow=hidden;pointerEvents=1;strokeColor=#AF45ED;fontColor=#095C86;" vertex="1" parent="r9-Q5MIrD_7l047VHaWx-29">
          <mxGeometry x="40" width="140" height="30" as="geometry" />
        </mxCell>
        <mxCell id="r9-Q5MIrD_7l047VHaWx-32" value="" style="shape=partialRectangle;html=1;whiteSpace=wrap;collapsible=0;dropTarget=0;pointerEvents=1;fillColor=none;top=0;left=0;bottom=0;right=0;points=[[0,0.5],[1,0.5]];portConstraint=eastwest;strokeColor=#AF45ED;fontColor=#095C86;" vertex="1" parent="r9-Q5MIrD_7l047VHaWx-28">
          <mxGeometry y="60" width="180" height="40" as="geometry" />
        </mxCell>
        <mxCell id="r9-Q5MIrD_7l047VHaWx-33" value="" style="shape=partialRectangle;html=1;whiteSpace=wrap;connectable=0;fillColor=none;top=0;left=0;bottom=0;right=0;overflow=hidden;pointerEvents=1;strokeColor=#AF45ED;fontColor=#095C86;" vertex="1" parent="r9-Q5MIrD_7l047VHaWx-32">
          <mxGeometry width="40" height="40" as="geometry" />
        </mxCell>
        <mxCell id="r9-Q5MIrD_7l047VHaWx-34" value="firstName" style="shape=partialRectangle;html=1;whiteSpace=wrap;connectable=0;fillColor=none;top=0;left=0;bottom=0;right=0;align=left;spacingLeft=6;overflow=hidden;pointerEvents=1;strokeColor=#AF45ED;fontColor=#095C86;" vertex="1" parent="r9-Q5MIrD_7l047VHaWx-32">
          <mxGeometry x="40" width="140" height="40" as="geometry" />
        </mxCell>
        <mxCell id="r9-Q5MIrD_7l047VHaWx-35" value="" style="shape=partialRectangle;html=1;whiteSpace=wrap;collapsible=0;dropTarget=0;pointerEvents=1;fillColor=none;top=0;left=0;bottom=0;right=0;points=[[0,0.5],[1,0.5]];portConstraint=eastwest;strokeColor=#AF45ED;fontColor=#095C86;" vertex="1" parent="r9-Q5MIrD_7l047VHaWx-28">
          <mxGeometry y="100" width="180" height="20" as="geometry" />
        </mxCell>
        <mxCell id="r9-Q5MIrD_7l047VHaWx-36" value="" style="shape=partialRectangle;html=1;whiteSpace=wrap;connectable=0;fillColor=none;top=0;left=0;bottom=0;right=0;overflow=hidden;pointerEvents=1;strokeColor=#AF45ED;fontColor=#095C86;" vertex="1" parent="r9-Q5MIrD_7l047VHaWx-35">
          <mxGeometry width="40" height="20" as="geometry" />
        </mxCell>
        <mxCell id="r9-Q5MIrD_7l047VHaWx-37" value="surName" style="shape=partialRectangle;html=1;whiteSpace=wrap;connectable=0;fillColor=none;top=0;left=0;bottom=0;right=0;align=left;spacingLeft=6;overflow=hidden;pointerEvents=1;strokeColor=#AF45ED;fontColor=#095C86;" vertex="1" parent="r9-Q5MIrD_7l047VHaWx-35">
          <mxGeometry x="40" width="140" height="20" as="geometry" />
        </mxCell>
        <mxCell id="r9-Q5MIrD_7l047VHaWx-49" style="shape=partialRectangle;html=1;whiteSpace=wrap;collapsible=0;dropTarget=0;pointerEvents=1;fillColor=none;top=0;left=0;bottom=0;right=0;points=[[0,0.5],[1,0.5]];portConstraint=eastwest;strokeColor=#AF45ED;fontColor=#095C86;" vertex="1" parent="r9-Q5MIrD_7l047VHaWx-28">
          <mxGeometry y="120" width="180" height="40" as="geometry" />
        </mxCell>
        <mxCell id="r9-Q5MIrD_7l047VHaWx-50" style="shape=partialRectangle;html=1;whiteSpace=wrap;connectable=0;fillColor=none;top=0;left=0;bottom=0;right=0;overflow=hidden;pointerEvents=1;strokeColor=#AF45ED;fontColor=#095C86;" vertex="1" parent="r9-Q5MIrD_7l047VHaWx-49">
          <mxGeometry width="40" height="40" as="geometry" />
        </mxCell>
        <mxCell id="r9-Q5MIrD_7l047VHaWx-51" value="avatar" style="shape=partialRectangle;html=1;whiteSpace=wrap;connectable=0;fillColor=none;top=0;left=0;bottom=0;right=0;align=left;spacingLeft=6;overflow=hidden;pointerEvents=1;strokeColor=#AF45ED;fontColor=#095C86;" vertex="1" parent="r9-Q5MIrD_7l047VHaWx-49">
          <mxGeometry x="40" width="140" height="40" as="geometry" />
        </mxCell>
        <mxCell id="r9-Q5MIrD_7l047VHaWx-54" style="shape=partialRectangle;html=1;whiteSpace=wrap;collapsible=0;dropTarget=0;pointerEvents=1;fillColor=none;top=0;left=0;bottom=0;right=0;points=[[0,0.5],[1,0.5]];portConstraint=eastwest;strokeColor=#AF45ED;fontColor=#095C86;" vertex="1" parent="r9-Q5MIrD_7l047VHaWx-28">
          <mxGeometry y="160" width="180" height="30" as="geometry" />
        </mxCell>
        <mxCell id="r9-Q5MIrD_7l047VHaWx-55" style="shape=partialRectangle;html=1;whiteSpace=wrap;connectable=0;fillColor=none;top=0;left=0;bottom=0;right=0;overflow=hidden;pointerEvents=1;strokeColor=#AF45ED;fontColor=#095C86;" vertex="1" parent="r9-Q5MIrD_7l047VHaWx-54">
          <mxGeometry width="40" height="30" as="geometry" />
        </mxCell>
        <mxCell id="r9-Q5MIrD_7l047VHaWx-56" value="email" style="shape=partialRectangle;html=1;whiteSpace=wrap;connectable=0;fillColor=none;top=0;left=0;bottom=0;right=0;align=left;spacingLeft=6;overflow=hidden;pointerEvents=1;strokeColor=#AF45ED;fontColor=#095C86;" vertex="1" parent="r9-Q5MIrD_7l047VHaWx-54">
          <mxGeometry x="40" width="140" height="30" as="geometry" />
        </mxCell>
        <mxCell id="r9-Q5MIrD_7l047VHaWx-57" style="shape=partialRectangle;html=1;whiteSpace=wrap;collapsible=0;dropTarget=0;pointerEvents=1;fillColor=none;top=0;left=0;bottom=0;right=0;points=[[0,0.5],[1,0.5]];portConstraint=eastwest;strokeColor=#AF45ED;fontColor=#095C86;" vertex="1" parent="r9-Q5MIrD_7l047VHaWx-28">
          <mxGeometry y="190" width="180" height="30" as="geometry" />
        </mxCell>
        <mxCell id="r9-Q5MIrD_7l047VHaWx-58" style="shape=partialRectangle;html=1;whiteSpace=wrap;connectable=0;fillColor=none;top=0;left=0;bottom=0;right=0;overflow=hidden;pointerEvents=1;strokeColor=#AF45ED;fontColor=#095C86;" vertex="1" parent="r9-Q5MIrD_7l047VHaWx-57">
          <mxGeometry width="40" height="30" as="geometry" />
        </mxCell>
        <mxCell id="r9-Q5MIrD_7l047VHaWx-59" value="password" style="shape=partialRectangle;html=1;whiteSpace=wrap;connectable=0;fillColor=none;top=0;left=0;bottom=0;right=0;align=left;spacingLeft=6;overflow=hidden;pointerEvents=1;strokeColor=#AF45ED;fontColor=#095C86;" vertex="1" parent="r9-Q5MIrD_7l047VHaWx-57">
          <mxGeometry x="40" width="140" height="30" as="geometry" />
        </mxCell>
        <mxCell id="r9-Q5MIrD_7l047VHaWx-79" style="shape=partialRectangle;html=1;whiteSpace=wrap;collapsible=0;dropTarget=0;pointerEvents=1;fillColor=none;top=0;left=0;bottom=0;right=0;points=[[0,0.5],[1,0.5]];portConstraint=eastwest;strokeColor=#AF45ED;fontColor=#095C86;" vertex="1" parent="r9-Q5MIrD_7l047VHaWx-28">
          <mxGeometry y="220" width="180" height="30" as="geometry" />
        </mxCell>
        <mxCell id="r9-Q5MIrD_7l047VHaWx-80" value="FK" style="shape=partialRectangle;html=1;whiteSpace=wrap;connectable=0;fillColor=none;top=0;left=0;bottom=0;right=0;overflow=hidden;pointerEvents=1;strokeColor=#AF45ED;fontColor=#095C86;" vertex="1" parent="r9-Q5MIrD_7l047VHaWx-79">
          <mxGeometry width="40" height="30" as="geometry" />
        </mxCell>
        <mxCell id="r9-Q5MIrD_7l047VHaWx-81" value="type_id" style="shape=partialRectangle;html=1;whiteSpace=wrap;connectable=0;fillColor=none;top=0;left=0;bottom=0;right=0;align=left;spacingLeft=6;overflow=hidden;pointerEvents=1;strokeColor=#AF45ED;fontColor=#095C86;" vertex="1" parent="r9-Q5MIrD_7l047VHaWx-79">
          <mxGeometry x="40" width="140" height="30" as="geometry" />
        </mxCell>
        <mxCell id="r9-Q5MIrD_7l047VHaWx-60" value="Products" style="shape=table;startSize=30;container=1;collapsible=0;childLayout=tableLayout;fixedRows=1;rowLines=0;fontStyle=1;align=center;pointerEvents=1;fillColor=#F694C1;strokeColor=#AF45ED;fontColor=#095C86;" vertex="1" parent="1">
          <mxGeometry x="140" y="1240" width="180" height="320" as="geometry" />
        </mxCell>
        <mxCell id="r9-Q5MIrD_7l047VHaWx-61" value="" style="shape=partialRectangle;html=1;whiteSpace=wrap;collapsible=0;dropTarget=0;pointerEvents=1;fillColor=none;top=0;left=0;bottom=1;right=0;points=[[0,0.5],[1,0.5]];portConstraint=eastwest;strokeColor=#AF45ED;fontColor=#095C86;" vertex="1" parent="r9-Q5MIrD_7l047VHaWx-60">
          <mxGeometry y="30" width="180" height="30" as="geometry" />
        </mxCell>
        <mxCell id="r9-Q5MIrD_7l047VHaWx-62" value="PK" style="shape=partialRectangle;html=1;whiteSpace=wrap;connectable=0;fillColor=none;top=0;left=0;bottom=0;right=0;overflow=hidden;pointerEvents=1;strokeColor=#AF45ED;fontColor=#095C86;" vertex="1" parent="r9-Q5MIrD_7l047VHaWx-61">
          <mxGeometry width="40" height="30" as="geometry" />
        </mxCell>
        <mxCell id="r9-Q5MIrD_7l047VHaWx-63" value="Id int not null" style="shape=partialRectangle;html=1;whiteSpace=wrap;connectable=0;fillColor=none;top=0;left=0;bottom=0;right=0;align=left;spacingLeft=6;overflow=hidden;pointerEvents=1;strokeColor=#AF45ED;fontColor=#095C86;" vertex="1" parent="r9-Q5MIrD_7l047VHaWx-61">
          <mxGeometry x="40" width="140" height="30" as="geometry" />
        </mxCell>
        <mxCell id="r9-Q5MIrD_7l047VHaWx-64" value="" style="shape=partialRectangle;html=1;whiteSpace=wrap;collapsible=0;dropTarget=0;pointerEvents=1;fillColor=none;top=0;left=0;bottom=0;right=0;points=[[0,0.5],[1,0.5]];portConstraint=eastwest;strokeColor=#AF45ED;fontColor=#095C86;" vertex="1" parent="r9-Q5MIrD_7l047VHaWx-60">
          <mxGeometry y="60" width="180" height="40" as="geometry" />
        </mxCell>
        <mxCell id="r9-Q5MIrD_7l047VHaWx-65" value="" style="shape=partialRectangle;html=1;whiteSpace=wrap;connectable=0;fillColor=none;top=0;left=0;bottom=0;right=0;overflow=hidden;pointerEvents=1;strokeColor=#AF45ED;fontColor=#095C86;" vertex="1" parent="r9-Q5MIrD_7l047VHaWx-64">
          <mxGeometry width="40" height="40" as="geometry" />
        </mxCell>
        <mxCell id="r9-Q5MIrD_7l047VHaWx-66" value="name" style="shape=partialRectangle;html=1;whiteSpace=wrap;connectable=0;fillColor=none;top=0;left=0;bottom=0;right=0;align=left;spacingLeft=6;overflow=hidden;pointerEvents=1;strokeColor=#AF45ED;fontColor=#095C86;" vertex="1" parent="r9-Q5MIrD_7l047VHaWx-64">
          <mxGeometry x="40" width="140" height="40" as="geometry" />
        </mxCell>
        <mxCell id="r9-Q5MIrD_7l047VHaWx-67" value="" style="shape=partialRectangle;html=1;whiteSpace=wrap;collapsible=0;dropTarget=0;pointerEvents=1;fillColor=none;top=0;left=0;bottom=0;right=0;points=[[0,0.5],[1,0.5]];portConstraint=eastwest;strokeColor=#AF45ED;fontColor=#095C86;" vertex="1" parent="r9-Q5MIrD_7l047VHaWx-60">
          <mxGeometry y="100" width="180" height="20" as="geometry" />
        </mxCell>
        <mxCell id="r9-Q5MIrD_7l047VHaWx-68" value="" style="shape=partialRectangle;html=1;whiteSpace=wrap;connectable=0;fillColor=none;top=0;left=0;bottom=0;right=0;overflow=hidden;pointerEvents=1;strokeColor=#AF45ED;fontColor=#095C86;" vertex="1" parent="r9-Q5MIrD_7l047VHaWx-67">
          <mxGeometry width="40" height="20" as="geometry" />
        </mxCell>
        <mxCell id="r9-Q5MIrD_7l047VHaWx-69" value="description" style="shape=partialRectangle;html=1;whiteSpace=wrap;connectable=0;fillColor=none;top=0;left=0;bottom=0;right=0;align=left;spacingLeft=6;overflow=hidden;pointerEvents=1;strokeColor=#AF45ED;fontColor=#095C86;" vertex="1" parent="r9-Q5MIrD_7l047VHaWx-67">
          <mxGeometry x="40" width="140" height="20" as="geometry" />
        </mxCell>
        <mxCell id="r9-Q5MIrD_7l047VHaWx-70" style="shape=partialRectangle;html=1;whiteSpace=wrap;collapsible=0;dropTarget=0;pointerEvents=1;fillColor=none;top=0;left=0;bottom=0;right=0;points=[[0,0.5],[1,0.5]];portConstraint=eastwest;strokeColor=#AF45ED;fontColor=#095C86;" vertex="1" parent="r9-Q5MIrD_7l047VHaWx-60">
          <mxGeometry y="120" width="180" height="40" as="geometry" />
        </mxCell>
        <mxCell id="r9-Q5MIrD_7l047VHaWx-71" style="shape=partialRectangle;html=1;whiteSpace=wrap;connectable=0;fillColor=none;top=0;left=0;bottom=0;right=0;overflow=hidden;pointerEvents=1;strokeColor=#AF45ED;fontColor=#095C86;" vertex="1" parent="r9-Q5MIrD_7l047VHaWx-70">
          <mxGeometry width="40" height="40" as="geometry" />
        </mxCell>
        <mxCell id="r9-Q5MIrD_7l047VHaWx-72" value="category" style="shape=partialRectangle;html=1;whiteSpace=wrap;connectable=0;fillColor=none;top=0;left=0;bottom=0;right=0;align=left;spacingLeft=6;overflow=hidden;pointerEvents=1;strokeColor=#AF45ED;fontColor=#095C86;" vertex="1" parent="r9-Q5MIrD_7l047VHaWx-70">
          <mxGeometry x="40" width="140" height="40" as="geometry" />
        </mxCell>
        <mxCell id="r9-Q5MIrD_7l047VHaWx-73" style="shape=partialRectangle;html=1;whiteSpace=wrap;collapsible=0;dropTarget=0;pointerEvents=1;fillColor=none;top=0;left=0;bottom=0;right=0;points=[[0,0.5],[1,0.5]];portConstraint=eastwest;strokeColor=#AF45ED;fontColor=#095C86;" vertex="1" parent="r9-Q5MIrD_7l047VHaWx-60">
          <mxGeometry y="160" width="180" height="30" as="geometry" />
        </mxCell>
        <mxCell id="r9-Q5MIrD_7l047VHaWx-74" style="shape=partialRectangle;html=1;whiteSpace=wrap;connectable=0;fillColor=none;top=0;left=0;bottom=0;right=0;overflow=hidden;pointerEvents=1;strokeColor=#AF45ED;fontColor=#095C86;" vertex="1" parent="r9-Q5MIrD_7l047VHaWx-73">
          <mxGeometry width="40" height="30" as="geometry" />
        </mxCell>
        <mxCell id="r9-Q5MIrD_7l047VHaWx-75" value="off" style="shape=partialRectangle;html=1;whiteSpace=wrap;connectable=0;fillColor=none;top=0;left=0;bottom=0;right=0;align=left;spacingLeft=6;overflow=hidden;pointerEvents=1;strokeColor=#AF45ED;fontColor=#095C86;" vertex="1" parent="r9-Q5MIrD_7l047VHaWx-73">
          <mxGeometry x="40" width="140" height="30" as="geometry" />
        </mxCell>
        <mxCell id="r9-Q5MIrD_7l047VHaWx-76" style="shape=partialRectangle;html=1;whiteSpace=wrap;collapsible=0;dropTarget=0;pointerEvents=1;fillColor=none;top=0;left=0;bottom=0;right=0;points=[[0,0.5],[1,0.5]];portConstraint=eastwest;strokeColor=#AF45ED;fontColor=#095C86;" vertex="1" parent="r9-Q5MIrD_7l047VHaWx-60">
          <mxGeometry y="190" width="180" height="30" as="geometry" />
        </mxCell>
        <mxCell id="r9-Q5MIrD_7l047VHaWx-77" style="shape=partialRectangle;html=1;whiteSpace=wrap;connectable=0;fillColor=none;top=0;left=0;bottom=0;right=0;overflow=hidden;pointerEvents=1;strokeColor=#AF45ED;fontColor=#095C86;" vertex="1" parent="r9-Q5MIrD_7l047VHaWx-76">
          <mxGeometry width="40" height="30" as="geometry" />
        </mxCell>
        <mxCell id="r9-Q5MIrD_7l047VHaWx-78" value="images" style="shape=partialRectangle;html=1;whiteSpace=wrap;connectable=0;fillColor=none;top=0;left=0;bottom=0;right=0;align=left;spacingLeft=6;overflow=hidden;pointerEvents=1;strokeColor=#AF45ED;fontColor=#095C86;" vertex="1" parent="r9-Q5MIrD_7l047VHaWx-76">
          <mxGeometry x="40" width="140" height="30" as="geometry" />
        </mxCell>
        <mxCell id="r9-Q5MIrD_7l047VHaWx-107" style="shape=partialRectangle;html=1;whiteSpace=wrap;collapsible=0;dropTarget=0;pointerEvents=1;fillColor=none;top=0;left=0;bottom=0;right=0;points=[[0,0.5],[1,0.5]];portConstraint=eastwest;strokeColor=#AF45ED;fontColor=#095C86;" vertex="1" parent="r9-Q5MIrD_7l047VHaWx-60">
          <mxGeometry y="220" width="180" height="30" as="geometry" />
        </mxCell>
        <mxCell id="r9-Q5MIrD_7l047VHaWx-108" style="shape=partialRectangle;html=1;whiteSpace=wrap;connectable=0;fillColor=none;top=0;left=0;bottom=0;right=0;overflow=hidden;pointerEvents=1;strokeColor=#AF45ED;fontColor=#095C86;" vertex="1" parent="r9-Q5MIrD_7l047VHaWx-107">
          <mxGeometry width="40" height="30" as="geometry" />
        </mxCell>
        <mxCell id="r9-Q5MIrD_7l047VHaWx-109" value="price" style="shape=partialRectangle;html=1;whiteSpace=wrap;connectable=0;fillColor=none;top=0;left=0;bottom=0;right=0;align=left;spacingLeft=6;overflow=hidden;pointerEvents=1;strokeColor=#AF45ED;fontColor=#095C86;" vertex="1" parent="r9-Q5MIrD_7l047VHaWx-107">
          <mxGeometry x="40" width="140" height="30" as="geometry" />
        </mxCell>
        <mxCell id="r9-Q5MIrD_7l047VHaWx-110" style="shape=partialRectangle;html=1;whiteSpace=wrap;collapsible=0;dropTarget=0;pointerEvents=1;fillColor=none;top=0;left=0;bottom=0;right=0;points=[[0,0.5],[1,0.5]];portConstraint=eastwest;strokeColor=#AF45ED;fontColor=#095C86;" vertex="1" parent="r9-Q5MIrD_7l047VHaWx-60">
          <mxGeometry y="250" width="180" height="30" as="geometry" />
        </mxCell>
        <mxCell id="r9-Q5MIrD_7l047VHaWx-111" value="FK" style="shape=partialRectangle;html=1;whiteSpace=wrap;connectable=0;fillColor=none;top=0;left=0;bottom=0;right=0;overflow=hidden;pointerEvents=1;strokeColor=#AF45ED;fontColor=#095C86;" vertex="1" parent="r9-Q5MIrD_7l047VHaWx-110">
          <mxGeometry width="40" height="30" as="geometry" />
        </mxCell>
        <mxCell id="r9-Q5MIrD_7l047VHaWx-112" value="category_id" style="shape=partialRectangle;html=1;whiteSpace=wrap;connectable=0;fillColor=none;top=0;left=0;bottom=0;right=0;align=left;spacingLeft=6;overflow=hidden;pointerEvents=1;strokeColor=#AF45ED;fontColor=#095C86;" vertex="1" parent="r9-Q5MIrD_7l047VHaWx-110">
          <mxGeometry x="40" width="140" height="30" as="geometry" />
        </mxCell>
        <mxCell id="r9-Q5MIrD_7l047VHaWx-133" style="shape=partialRectangle;html=1;whiteSpace=wrap;collapsible=0;dropTarget=0;pointerEvents=1;fillColor=none;top=0;left=0;bottom=0;right=0;points=[[0,0.5],[1,0.5]];portConstraint=eastwest;strokeColor=#AF45ED;fontColor=#095C86;" vertex="1" parent="r9-Q5MIrD_7l047VHaWx-60">
          <mxGeometry y="280" width="180" height="30" as="geometry" />
        </mxCell>
        <mxCell id="r9-Q5MIrD_7l047VHaWx-134" value="FK" style="shape=partialRectangle;html=1;whiteSpace=wrap;connectable=0;fillColor=none;top=0;left=0;bottom=0;right=0;overflow=hidden;pointerEvents=1;strokeColor=#AF45ED;fontColor=#095C86;" vertex="1" parent="r9-Q5MIrD_7l047VHaWx-133">
          <mxGeometry width="40" height="30" as="geometry" />
        </mxCell>
        <mxCell id="r9-Q5MIrD_7l047VHaWx-135" value="brand_id" style="shape=partialRectangle;html=1;whiteSpace=wrap;connectable=0;fillColor=none;top=0;left=0;bottom=0;right=0;align=left;spacingLeft=6;overflow=hidden;pointerEvents=1;strokeColor=#AF45ED;fontColor=#095C86;" vertex="1" parent="r9-Q5MIrD_7l047VHaWx-133">
          <mxGeometry x="40" width="140" height="30" as="geometry" />
        </mxCell>
        <mxCell id="r9-Q5MIrD_7l047VHaWx-93" value="Types" style="shape=table;startSize=30;container=1;collapsible=1;childLayout=tableLayout;fixedRows=1;rowLines=0;fontStyle=1;align=center;resizeLast=1;fillColor=#F694C1;strokeColor=#AF45ED;fontColor=#095C86;" vertex="1" parent="1">
          <mxGeometry x="425" y="1030" width="180" height="100" as="geometry" />
        </mxCell>
        <mxCell id="r9-Q5MIrD_7l047VHaWx-94" value="" style="shape=partialRectangle;collapsible=0;dropTarget=0;pointerEvents=0;fillColor=none;top=0;left=0;bottom=1;right=0;points=[[0,0.5],[1,0.5]];portConstraint=eastwest;strokeColor=#AF45ED;fontColor=#095C86;" vertex="1" parent="r9-Q5MIrD_7l047VHaWx-93">
          <mxGeometry y="30" width="180" height="30" as="geometry" />
        </mxCell>
        <mxCell id="r9-Q5MIrD_7l047VHaWx-95" value="PK" style="shape=partialRectangle;connectable=0;fillColor=none;top=0;left=0;bottom=0;right=0;fontStyle=1;overflow=hidden;strokeColor=#AF45ED;fontColor=#095C86;" vertex="1" parent="r9-Q5MIrD_7l047VHaWx-94">
          <mxGeometry width="30" height="30" as="geometry" />
        </mxCell>
        <mxCell id="r9-Q5MIrD_7l047VHaWx-96" value="id int not null" style="shape=partialRectangle;connectable=0;fillColor=none;top=0;left=0;bottom=0;right=0;align=left;spacingLeft=6;fontStyle=5;overflow=hidden;strokeColor=#AF45ED;fontColor=#095C86;" vertex="1" parent="r9-Q5MIrD_7l047VHaWx-94">
          <mxGeometry x="30" width="150" height="30" as="geometry" />
        </mxCell>
        <mxCell id="r9-Q5MIrD_7l047VHaWx-97" value="" style="shape=partialRectangle;collapsible=0;dropTarget=0;pointerEvents=0;fillColor=none;top=0;left=0;bottom=0;right=0;points=[[0,0.5],[1,0.5]];portConstraint=eastwest;strokeColor=#AF45ED;fontColor=#095C86;" vertex="1" parent="r9-Q5MIrD_7l047VHaWx-93">
          <mxGeometry y="60" width="180" height="30" as="geometry" />
        </mxCell>
        <mxCell id="r9-Q5MIrD_7l047VHaWx-98" value="" style="shape=partialRectangle;connectable=0;fillColor=none;top=0;left=0;bottom=0;right=0;editable=1;overflow=hidden;strokeColor=#AF45ED;fontColor=#095C86;" vertex="1" parent="r9-Q5MIrD_7l047VHaWx-97">
          <mxGeometry width="30" height="30" as="geometry" />
        </mxCell>
        <mxCell id="r9-Q5MIrD_7l047VHaWx-99" value="type" style="shape=partialRectangle;connectable=0;fillColor=none;top=0;left=0;bottom=0;right=0;align=left;spacingLeft=6;overflow=hidden;strokeColor=#AF45ED;fontColor=#095C86;" vertex="1" parent="r9-Q5MIrD_7l047VHaWx-97">
          <mxGeometry x="30" width="150" height="30" as="geometry" />
        </mxCell>
        <mxCell id="r9-Q5MIrD_7l047VHaWx-106" value="" style="edgeStyle=entityRelationEdgeStyle;fontSize=12;html=1;endArrow=ERoneToMany;exitX=0;exitY=0.5;exitDx=0;exitDy=0;entryX=1;entryY=0.5;entryDx=0;entryDy=0;fontColor=#095C86;curved=1;" edge="1" parent="1" source="r9-Q5MIrD_7l047VHaWx-94" target="r9-Q5MIrD_7l047VHaWx-79">
          <mxGeometry width="100" height="100" relative="1" as="geometry">
            <mxPoint x="370" y="1220" as="sourcePoint" />
            <mxPoint x="400" y="1120" as="targetPoint" />
          </mxGeometry>
        </mxCell>
        <mxCell id="r9-Q5MIrD_7l047VHaWx-113" value="Categories" style="shape=table;startSize=30;container=1;collapsible=1;childLayout=tableLayout;fixedRows=1;rowLines=0;fontStyle=1;align=center;resizeLast=1;fillColor=#F694C1;strokeColor=#AF45ED;fontColor=#095C86;" vertex="1" parent="1">
          <mxGeometry x="425" y="1400" width="180" height="100" as="geometry" />
        </mxCell>
        <mxCell id="r9-Q5MIrD_7l047VHaWx-114" value="" style="shape=partialRectangle;collapsible=0;dropTarget=0;pointerEvents=0;fillColor=none;top=0;left=0;bottom=1;right=0;points=[[0,0.5],[1,0.5]];portConstraint=eastwest;strokeColor=#AF45ED;fontColor=#095C86;" vertex="1" parent="r9-Q5MIrD_7l047VHaWx-113">
          <mxGeometry y="30" width="180" height="30" as="geometry" />
        </mxCell>
        <mxCell id="r9-Q5MIrD_7l047VHaWx-115" value="PK" style="shape=partialRectangle;connectable=0;fillColor=none;top=0;left=0;bottom=0;right=0;fontStyle=1;overflow=hidden;strokeColor=#AF45ED;fontColor=#095C86;" vertex="1" parent="r9-Q5MIrD_7l047VHaWx-114">
          <mxGeometry width="30" height="30" as="geometry" />
        </mxCell>
        <mxCell id="r9-Q5MIrD_7l047VHaWx-116" value="id int not null" style="shape=partialRectangle;connectable=0;fillColor=none;top=0;left=0;bottom=0;right=0;align=left;spacingLeft=6;fontStyle=5;overflow=hidden;strokeColor=#AF45ED;fontColor=#095C86;" vertex="1" parent="r9-Q5MIrD_7l047VHaWx-114">
          <mxGeometry x="30" width="150" height="30" as="geometry" />
        </mxCell>
        <mxCell id="r9-Q5MIrD_7l047VHaWx-117" value="" style="shape=partialRectangle;collapsible=0;dropTarget=0;pointerEvents=0;fillColor=none;top=0;left=0;bottom=0;right=0;points=[[0,0.5],[1,0.5]];portConstraint=eastwest;strokeColor=#AF45ED;fontColor=#095C86;" vertex="1" parent="r9-Q5MIrD_7l047VHaWx-113">
          <mxGeometry y="60" width="180" height="30" as="geometry" />
        </mxCell>
        <mxCell id="r9-Q5MIrD_7l047VHaWx-118" value="" style="shape=partialRectangle;connectable=0;fillColor=none;top=0;left=0;bottom=0;right=0;editable=1;overflow=hidden;strokeColor=#AF45ED;fontColor=#095C86;" vertex="1" parent="r9-Q5MIrD_7l047VHaWx-117">
          <mxGeometry width="30" height="30" as="geometry" />
        </mxCell>
        <mxCell id="r9-Q5MIrD_7l047VHaWx-119" value="category" style="shape=partialRectangle;connectable=0;fillColor=none;top=0;left=0;bottom=0;right=0;align=left;spacingLeft=6;overflow=hidden;strokeColor=#AF45ED;fontColor=#095C86;" vertex="1" parent="r9-Q5MIrD_7l047VHaWx-117">
          <mxGeometry x="30" width="150" height="30" as="geometry" />
        </mxCell>
        <mxCell id="r9-Q5MIrD_7l047VHaWx-120" value="" style="edgeStyle=entityRelationEdgeStyle;fontSize=12;html=1;endArrow=ERoneToMany;entryX=1;entryY=0.5;entryDx=0;entryDy=0;exitX=0;exitY=0.5;exitDx=0;exitDy=0;fontColor=#095C86;curved=1;" edge="1" parent="1" source="r9-Q5MIrD_7l047VHaWx-114" target="r9-Q5MIrD_7l047VHaWx-110">
          <mxGeometry width="100" height="100" relative="1" as="geometry">
            <mxPoint x="430" y="1450" as="sourcePoint" />
            <mxPoint x="520" y="1490" as="targetPoint" />
          </mxGeometry>
        </mxCell>
        <mxCell id="r9-Q5MIrD_7l047VHaWx-121" value="Images" style="shape=table;startSize=30;container=1;collapsible=1;childLayout=tableLayout;fixedRows=1;rowLines=0;fontStyle=1;align=center;resizeLast=1;fillColor=#F694C1;strokeColor=#AF45ED;fontColor=#095C86;" vertex="1" parent="1">
          <mxGeometry x="425" y="1240" width="180" height="130" as="geometry" />
        </mxCell>
        <mxCell id="r9-Q5MIrD_7l047VHaWx-122" value="" style="shape=partialRectangle;collapsible=0;dropTarget=0;pointerEvents=0;fillColor=none;top=0;left=0;bottom=1;right=0;points=[[0,0.5],[1,0.5]];portConstraint=eastwest;strokeColor=#AF45ED;fontColor=#095C86;" vertex="1" parent="r9-Q5MIrD_7l047VHaWx-121">
          <mxGeometry y="30" width="180" height="30" as="geometry" />
        </mxCell>
        <mxCell id="r9-Q5MIrD_7l047VHaWx-123" value="PK" style="shape=partialRectangle;connectable=0;fillColor=none;top=0;left=0;bottom=0;right=0;fontStyle=1;overflow=hidden;strokeColor=#AF45ED;fontColor=#095C86;" vertex="1" parent="r9-Q5MIrD_7l047VHaWx-122">
          <mxGeometry width="30" height="30" as="geometry" />
        </mxCell>
        <mxCell id="r9-Q5MIrD_7l047VHaWx-124" value="id int not null" style="shape=partialRectangle;connectable=0;fillColor=none;top=0;left=0;bottom=0;right=0;align=left;spacingLeft=6;fontStyle=5;overflow=hidden;strokeColor=#AF45ED;fontColor=#095C86;" vertex="1" parent="r9-Q5MIrD_7l047VHaWx-122">
          <mxGeometry x="30" width="150" height="30" as="geometry" />
        </mxCell>
        <mxCell id="r9-Q5MIrD_7l047VHaWx-125" value="" style="shape=partialRectangle;collapsible=0;dropTarget=0;pointerEvents=0;fillColor=none;top=0;left=0;bottom=0;right=0;points=[[0,0.5],[1,0.5]];portConstraint=eastwest;strokeColor=#AF45ED;fontColor=#095C86;" vertex="1" parent="r9-Q5MIrD_7l047VHaWx-121">
          <mxGeometry y="60" width="180" height="30" as="geometry" />
        </mxCell>
        <mxCell id="r9-Q5MIrD_7l047VHaWx-126" value="" style="shape=partialRectangle;connectable=0;fillColor=none;top=0;left=0;bottom=0;right=0;editable=1;overflow=hidden;strokeColor=#AF45ED;fontColor=#095C86;" vertex="1" parent="r9-Q5MIrD_7l047VHaWx-125">
          <mxGeometry width="30" height="30" as="geometry" />
        </mxCell>
        <mxCell id="r9-Q5MIrD_7l047VHaWx-127" value="image" style="shape=partialRectangle;connectable=0;fillColor=none;top=0;left=0;bottom=0;right=0;align=left;spacingLeft=6;overflow=hidden;strokeColor=#AF45ED;fontColor=#095C86;" vertex="1" parent="r9-Q5MIrD_7l047VHaWx-125">
          <mxGeometry x="30" width="150" height="30" as="geometry" />
        </mxCell>
        <mxCell id="r9-Q5MIrD_7l047VHaWx-128" style="shape=partialRectangle;collapsible=0;dropTarget=0;pointerEvents=0;fillColor=none;top=0;left=0;bottom=0;right=0;points=[[0,0.5],[1,0.5]];portConstraint=eastwest;strokeColor=#AF45ED;fontColor=#095C86;" vertex="1" parent="r9-Q5MIrD_7l047VHaWx-121">
          <mxGeometry y="90" width="180" height="30" as="geometry" />
        </mxCell>
        <mxCell id="r9-Q5MIrD_7l047VHaWx-129" value="FK" style="shape=partialRectangle;connectable=0;fillColor=none;top=0;left=0;bottom=0;right=0;editable=1;overflow=hidden;strokeColor=#AF45ED;fontColor=#095C86;" vertex="1" parent="r9-Q5MIrD_7l047VHaWx-128">
          <mxGeometry width="30" height="30" as="geometry" />
        </mxCell>
        <mxCell id="r9-Q5MIrD_7l047VHaWx-130" value="product_id" style="shape=partialRectangle;connectable=0;fillColor=none;top=0;left=0;bottom=0;right=0;align=left;spacingLeft=6;overflow=hidden;strokeColor=#AF45ED;fontColor=#095C86;" vertex="1" parent="r9-Q5MIrD_7l047VHaWx-128">
          <mxGeometry x="30" width="150" height="30" as="geometry" />
        </mxCell>
        <mxCell id="r9-Q5MIrD_7l047VHaWx-132" value="" style="edgeStyle=entityRelationEdgeStyle;fontSize=12;html=1;endArrow=ERoneToMany;exitX=1;exitY=0.5;exitDx=0;exitDy=0;entryX=0;entryY=0.5;entryDx=0;entryDy=0;fontColor=#095C86;curved=1;" edge="1" parent="1" source="r9-Q5MIrD_7l047VHaWx-61" target="r9-Q5MIrD_7l047VHaWx-128">
          <mxGeometry width="100" height="100" relative="1" as="geometry">
            <mxPoint x="660" y="1400" as="sourcePoint" />
            <mxPoint x="760" y="1300" as="targetPoint" />
          </mxGeometry>
        </mxCell>
        <mxCell id="r9-Q5MIrD_7l047VHaWx-136" value="Brands" style="shape=table;startSize=30;container=1;collapsible=1;childLayout=tableLayout;fixedRows=1;rowLines=0;fontStyle=1;align=center;resizeLast=1;fillColor=#F694C1;strokeColor=#AF45ED;fontColor=#095C86;" vertex="1" parent="1">
          <mxGeometry x="425" y="1540" width="180" height="100" as="geometry" />
        </mxCell>
        <mxCell id="r9-Q5MIrD_7l047VHaWx-137" value="" style="shape=partialRectangle;collapsible=0;dropTarget=0;pointerEvents=0;fillColor=none;top=0;left=0;bottom=1;right=0;points=[[0,0.5],[1,0.5]];portConstraint=eastwest;strokeColor=#AF45ED;fontColor=#095C86;" vertex="1" parent="r9-Q5MIrD_7l047VHaWx-136">
          <mxGeometry y="30" width="180" height="30" as="geometry" />
        </mxCell>
        <mxCell id="r9-Q5MIrD_7l047VHaWx-138" value="PK" style="shape=partialRectangle;connectable=0;fillColor=none;top=0;left=0;bottom=0;right=0;fontStyle=1;overflow=hidden;strokeColor=#AF45ED;fontColor=#095C86;" vertex="1" parent="r9-Q5MIrD_7l047VHaWx-137">
          <mxGeometry width="30" height="30" as="geometry" />
        </mxCell>
        <mxCell id="r9-Q5MIrD_7l047VHaWx-139" value="id int not null" style="shape=partialRectangle;connectable=0;fillColor=none;top=0;left=0;bottom=0;right=0;align=left;spacingLeft=6;fontStyle=5;overflow=hidden;strokeColor=#AF45ED;fontColor=#095C86;" vertex="1" parent="r9-Q5MIrD_7l047VHaWx-137">
          <mxGeometry x="30" width="150" height="30" as="geometry" />
        </mxCell>
        <mxCell id="r9-Q5MIrD_7l047VHaWx-140" value="" style="shape=partialRectangle;collapsible=0;dropTarget=0;pointerEvents=0;fillColor=none;top=0;left=0;bottom=0;right=0;points=[[0,0.5],[1,0.5]];portConstraint=eastwest;strokeColor=#AF45ED;fontColor=#095C86;" vertex="1" parent="r9-Q5MIrD_7l047VHaWx-136">
          <mxGeometry y="60" width="180" height="30" as="geometry" />
        </mxCell>
        <mxCell id="r9-Q5MIrD_7l047VHaWx-141" value="" style="shape=partialRectangle;connectable=0;fillColor=none;top=0;left=0;bottom=0;right=0;editable=1;overflow=hidden;strokeColor=#AF45ED;fontColor=#095C86;" vertex="1" parent="r9-Q5MIrD_7l047VHaWx-140">
          <mxGeometry width="30" height="30" as="geometry" />
        </mxCell>
        <mxCell id="r9-Q5MIrD_7l047VHaWx-142" value="brand" style="shape=partialRectangle;connectable=0;fillColor=none;top=0;left=0;bottom=0;right=0;align=left;spacingLeft=6;overflow=hidden;strokeColor=#AF45ED;fontColor=#095C86;" vertex="1" parent="r9-Q5MIrD_7l047VHaWx-140">
          <mxGeometry x="30" width="150" height="30" as="geometry" />
        </mxCell>
        <mxCell id="r9-Q5MIrD_7l047VHaWx-143" value="" style="edgeStyle=entityRelationEdgeStyle;fontSize=12;html=1;endArrow=ERoneToMany;fontColor=#095C86;exitX=0;exitY=0.5;exitDx=0;exitDy=0;entryX=1;entryY=0.5;entryDx=0;entryDy=0;" edge="1" parent="1" source="r9-Q5MIrD_7l047VHaWx-137" target="r9-Q5MIrD_7l047VHaWx-133">
          <mxGeometry width="100" height="100" relative="1" as="geometry">
            <mxPoint x="380" y="1570" as="sourcePoint" />
            <mxPoint x="370" y="1680" as="targetPoint" />
          </mxGeometry>
        </mxCell>
      </root>
    </mxGraphModel>
  </diagram>
</mxfile>
